<svg id="Capa_1"
fill="currentColor"
 data-name="Capa 1" xmlns="http://www.w3.org/2000/svg" viewBox="0 0 192.86 192.86"><defs><style>.cls-1{fill:#fff;}</style></defs><path class="cls-1" d="M194.72,234.86H372.16V427.72H179.3V234.86h10.15a8.39,8.39,0,0,1-.94.49,10.13,10.13,0,0,0-6.65,12.29q8,35.14,16.07,70.29,5.94,25.94,11.87,51.85c.55,2.43,1.85,3.62,3.56,3.27,1.9-.39,2.63-1.93,2.07-4.44q-9.5-42.8-19-85.58c-.92-4.13,1.5-7.24,5.72-7.29,2.75,0,5.52-.07,8.27.12,7.4.51,12.94,4,16.15,10.78,1.56,3.26,2.76,6.7,4.08,10.07a177.82,177.82,0,0,1,11,44.43c1.13,9.76,2,19.54,3,29.31.28,2.77.52,5.56.78,8.41a27.81,27.81,0,0,1-3.91.47,3.25,3.25,0,0,1-2.18-.78c-5.11-5.42-12.91-7-19-3.72-6.86,3.65-10.16,10.63-8.42,18.09,2.14,9.25,4.36,18.47,6.6,27.7,1.13,4.66,3.82,6.72,8.58,6.72h87c7.15,0,14.29.07,21.43,0a14.4,14.4,0,0,0,14-12.67c.16-1.34.68-1.74,2-1.75a34.67,34.67,0,0,0,7.84-.49,13.49,13.49,0,0,0,10.06-12.77,32.19,32.19,0,0,0-8.11-22.95c-5.45-6.2-12.31-10.16-20.68-9.76s-16.53,1.71-24.78,2.73c-9.12,1.12-18.22,2.37-27.33,3.57l-27.33,3.61-10,1.28c-1.19-11.28-2.47-22.34-3.49-33.42A182.13,182.13,0,0,0,239,302.8c-1.95-5.73-4.22-11.35-6.43-17A24.63,24.63,0,0,0,220,272.33c.19-.54.36-1,.52-1.45,2-5.43,2.32-11,.06-16.32-4.25-10-11.8-16.39-22.47-18.93C197,235.36,195.86,235.11,194.72,234.86Z" transform="translate(-179.3 -234.86)"/><path d="M194.72,234.86c1.14.25,2.28.5,3.41.77,10.67,2.54,18.22,8.89,22.47,18.93,2.26,5.34,1.89,10.89-.06,16.32-.16.46-.33.91-.52,1.45a24.63,24.63,0,0,1,12.5,13.48c2.21,5.64,4.48,11.26,6.43,17a182.13,182.13,0,0,1,8.82,41.89c1,11.08,2.3,22.14,3.49,33.42l10-1.28,27.33-3.61c9.11-1.2,18.21-2.45,27.33-3.57,8.25-1,16.5-2.34,24.78-2.73s15.23,3.56,20.68,9.76a32.19,32.19,0,0,1,8.11,22.95,13.49,13.49,0,0,1-10.06,12.77,34.67,34.67,0,0,1-7.84.49c-1.34,0-1.86.41-2,1.75a14.4,14.4,0,0,1-14,12.67c-7.14.1-14.28,0-21.43,0h-87c-4.76,0-7.45-2.06-8.58-6.72-2.24-9.23-4.46-18.45-6.6-27.7-1.74-7.46,1.56-14.44,8.42-18.09,6.12-3.26,13.92-1.7,19,3.72a3.25,3.25,0,0,0,2.18.78,27.81,27.81,0,0,0,3.91-.47c-.26-2.85-.5-5.64-.78-8.41-1-9.77-1.92-19.55-3-29.31a177.82,177.82,0,0,0-11-44.43c-1.32-3.37-2.52-6.81-4.08-10.07-3.21-6.75-8.75-10.27-16.15-10.78-2.75-.19-5.52-.15-8.27-.12-4.22.05-6.64,3.16-5.72,7.29q9.49,42.8,19,85.58c.56,2.51-.17,4.05-2.07,4.44-1.71.35-3-.84-3.56-3.27q-5.94-25.92-11.87-51.85-8-35.15-16.07-70.29a10.13,10.13,0,0,1,6.65-12.29,8.39,8.39,0,0,0,.94-.49ZM343.93,412.94h-2.15c-5.26,0-10.52,0-15.78,0a11.11,11.11,0,0,1-2.23-.24,2.77,2.77,0,0,1-.2-5.29,8.34,8.34,0,0,1,2.39-.3c10,0,19.92,0,29.88,0,4,0,7-2.32,7.67-6.28a21.56,21.56,0,0,0,0-5.95c-1.42-12.35-12.28-24.88-28.72-22-9.1,1.61-18.33,2.48-27.51,3.69l-26.95,3.53-27.52,3.61-9.94,1.33c1.58,6.79,3.18,13.39,4.6,20,.35,1.64,1,2,2.59,2q29.79-.08,59.57,0a10.16,10.16,0,0,1,2.41.23,2.75,2.75,0,0,1-.1,5.38,13,13,0,0,1-2.41.22H249.39c.54,2.39,1.13,4.49,1.46,6.63.25,1.69,1,2.16,2.69,2.16q40-.11,80-.05c.5,0,1,0,1.5,0C340.2,421.32,343.93,417.76,343.93,412.94Zm-98.48,8.74c-1.28-5.58-2.49-10.93-3.75-16.27-1.52-6.5-2.89-13-4.69-19.47a10,10,0,0,0-12.21-6.69,10.1,10.1,0,0,0-7.41,11.66c2.15,9.62,4.59,19.18,6.88,28.77a2.35,2.35,0,0,0,2.55,2ZM214.52,270.32c2.56-5.92,2.44-11.81-1.21-17.47-5-7.71-12.12-11.65-21.19-12.28a4.43,4.43,0,0,0-4.71,5.47c1.45,6.19,3,12.37,4.48,18.55.67,2.74,1.36,5.48,2.11,8.52,3.21-3,6.81-3.38,10.59-3.2C207.83,270.06,211.07,270.18,214.52,270.32Z" transform="translate(-179.3 -234.86)"/><path class="cls-1" d="M343.93,412.94c0,4.82-3.73,8.38-8.84,8.72-.49,0-1,0-1.5,0q-40,0-80,.05c-1.72,0-2.44-.47-2.69-2.16-.33-2.14-.92-4.24-1.46-6.63h60.14a13,13,0,0,0,2.41-.22,2.75,2.75,0,0,0,.1-5.38,10.16,10.16,0,0,0-2.41-.23q-29.78,0-59.57,0c-1.59,0-2.24-.39-2.59-2-1.42-6.65-3-13.25-4.6-20l9.94-1.33,27.52-3.61,26.95-3.53c9.18-1.21,18.41-2.08,27.51-3.69,16.44-2.92,27.3,9.61,28.72,22a21.56,21.56,0,0,1,0,5.95c-.66,4-3.64,6.28-7.67,6.28-10,0-19.92,0-29.88,0a8.34,8.34,0,0,0-2.39.3,2.77,2.77,0,0,0,.2,5.29,11.11,11.11,0,0,0,2.23.24c5.26,0,10.52,0,15.78,0Z" transform="translate(-179.3 -234.86)"/><path class="cls-1" d="M245.45,421.68H226.82a2.35,2.35,0,0,1-2.55-2c-2.29-9.59-4.73-19.15-6.88-28.77a10.1,10.1,0,0,1,7.41-11.66A10,10,0,0,1,237,385.94c1.8,6.43,3.17,13,4.69,19.47C243,410.75,244.17,416.1,245.45,421.68Z" transform="translate(-179.3 -234.86)"/><path class="cls-1" d="M214.52,270.32c-3.45-.14-6.69-.26-9.93-.41-3.78-.18-7.38.23-10.59,3.2-.75-3-1.44-5.78-2.11-8.52-1.5-6.18-3-12.36-4.48-18.55a4.43,4.43,0,0,1,4.71-5.47c9.07.63,16.23,4.57,21.19,12.28C217,258.51,217.08,264.4,214.52,270.32Z" transform="translate(-179.3 -234.86)"/></svg>