<svg  viewBox="0 0 38 38" fill="currentColor" xmlns="http://www.w3.org/2000/svg">
<path d="M30 25.5099C31.5913 25.5099 33.1175 26.142 34.2427 27.2673C35.3679 28.3925 36 29.9186 36 31.5099C36 33.1012 35.3679 34.6273 34.2427 35.7525C33.1175 36.8778 31.5913 37.5099 30 37.5099C28.758 37.5135 27.5457 37.1303 26.5315 36.4135C25.5172 35.6967 24.7513 34.6819 24.34 33.5099H22V29.5099H24.34C25.16 27.1699 27.38 25.5099 30 25.5099ZM30 29.5099C29.4696 29.5099 28.9609 29.7206 28.5858 30.0957C28.2107 30.4708 28 30.9795 28 31.5099C28 32.0403 28.2107 32.549 28.5858 32.9241C28.9609 33.2992 29.4696 33.5099 30 33.5099C30.5305 33.5099 31.0392 33.2992 31.4142 32.9241C31.7893 32.549 32 32.0403 32 31.5099C32 30.9795 31.7893 30.4708 31.4142 30.0957C31.0392 29.7206 30.5305 29.5099 30 29.5099ZM30 11.5099C30.7585 11.5099 31.486 11.2086 32.0224 10.6722C32.5587 10.1359 32.86 9.40842 32.86 8.6499C32.86 7.89138 32.5587 7.16393 32.0224 6.62758C31.486 6.09122 30.7585 5.7899 30 5.7899C29.2415 5.7899 28.5141 6.09122 27.9777 6.62758C27.4413 7.16393 27.14 7.89138 27.14 8.6499C27.14 9.40842 27.4413 10.1359 27.9777 10.6722C28.5141 11.2086 29.2415 11.5099 30 11.5099ZM30 0.649902C32.1218 0.649902 34.1566 1.49276 35.6569 2.99305C37.1572 4.49334 38 6.52817 38 8.6499C38 14.6299 30 23.5099 30 23.5099C30 23.5099 22 14.6299 22 8.6499C22 6.52817 22.8429 4.49334 24.3432 2.99305C25.8435 1.49276 27.8783 0.649902 30 0.649902ZM11.66 29.5099H14V33.5099H11.66C11.2488 34.6819 10.4829 35.6967 9.4686 36.4135C8.45432 37.1303 7.24202 37.5135 6.00002 37.5099C4.40873 37.5099 2.8826 36.8778 1.75738 35.7525C0.632166 34.6273 2.50288e-05 33.1012 2.50288e-05 31.5099C2.50288e-05 28.8899 1.66002 26.6699 4.00002 25.8499V23.5099H8.00002V25.8499C9.70002 26.4499 11.06 27.8099 11.66 29.5099ZM6.00002 29.5099C5.46959 29.5099 4.96088 29.7206 4.58581 30.0957C4.21074 30.4708 4.00002 30.9795 4.00002 31.5099C4.00002 32.0403 4.21074 32.549 4.58581 32.9241C4.96088 33.2992 5.46959 33.5099 6.00002 33.5099C6.53046 33.5099 7.03917 33.2992 7.41424 32.9241C7.78931 32.549 8.00002 32.0403 8.00002 31.5099C8.00002 30.9795 7.78931 30.4708 7.41424 30.0957C7.03917 29.7206 6.53046 29.5099 6.00002 29.5099ZM6.00002 1.5099C7.59132 1.5099 9.11745 2.14204 10.2427 3.26726C11.3679 4.39248 12 5.9186 12 7.5099C12 10.1299 10.34 12.3499 8.00002 13.1699V15.5099H4.00002V13.1699C2.82808 12.7587 1.81325 11.9928 1.09645 10.9785C0.379642 9.9642 -0.00356739 8.7519 2.50288e-05 7.5099C2.50288e-05 5.9186 0.632166 4.39248 1.75738 3.26726C2.8826 2.14204 4.40873 1.5099 6.00002 1.5099ZM6.00002 5.5099C5.46959 5.5099 4.96088 5.72062 4.58581 6.09569C4.21074 6.47076 4.00002 6.97947 4.00002 7.5099C4.00002 8.04034 4.21074 8.54904 4.58581 8.92412C4.96088 9.29919 5.46959 9.5099 6.00002 9.5099C6.53046 9.5099 7.03917 9.29919 7.41424 8.92412C7.78931 8.54904 8.00002 8.04034 8.00002 7.5099C8.00002 6.97947 7.78931 6.47076 7.41424 6.09569C7.03917 5.72062 6.53046 5.5099 6.00002 5.5099ZM16 33.5099V29.5099H20V33.5099H16ZM8.00002 21.5099H4.00002V17.5099H8.00002V21.5099Z" />
</svg>
