<svg  viewBox="0 0 17 17" fill="none" xmlns="http://www.w3.org/2000/svg">
<path d="M8.5 1.81445L2.5 3.81445V9.81445C2.5 13.1285 5.18594 15.8145 8.5 15.8145C11.8141 15.8145 14.5 13.1285 14.5 9.81445V3.81445L8.5 1.81445ZM13.375 9.81445C13.375 12.5066 11.1922 14.6895 8.5 14.6895C5.80781 14.6895 3.625 12.5066 3.625 9.81445V4.6582L8.5 2.93945L13.375 4.6582V9.81445Z" fill="#006FB7"/>
<path d="M6.41271 8.23789C6.36057 8.18552 6.2986 8.14396 6.23036 8.1156C6.16212 8.08724 6.08895 8.07265 6.01505 8.07265C5.94115 8.07265 5.86798 8.08724 5.79974 8.1156C5.7315 8.14396 5.66953 8.18552 5.61739 8.23789C5.56502 8.29003 5.52346 8.35199 5.4951 8.42024C5.46675 8.48848 5.45215 8.56165 5.45215 8.63555C5.45215 8.70945 5.46675 8.78262 5.4951 8.85086C5.52346 8.9191 5.56502 8.98107 5.61739 9.0332L7.63927 11.0551L7.67208 11.0879C7.7214 11.1373 7.77997 11.1765 7.84445 11.2032C7.90893 11.23 7.97806 11.2438 8.04786 11.2438C8.11767 11.2438 8.18679 11.23 8.25127 11.2032C8.31575 11.1765 8.37433 11.1373 8.42364 11.0879L11.9158 7.5957C11.9652 7.54639 12.0044 7.48781 12.0312 7.42333C12.0579 7.35885 12.0717 7.28973 12.0717 7.21992C12.0717 7.15012 12.0579 7.08099 12.0312 7.01651C12.0044 6.95203 11.9652 6.89346 11.9158 6.84414L11.8721 6.80039C11.8228 6.75098 11.7642 6.71179 11.6997 6.68504C11.6352 6.6583 11.5661 6.64453 11.4963 6.64453C11.4265 6.64453 11.3574 6.6583 11.2929 6.68504C11.2284 6.71179 11.1698 6.75098 11.1205 6.80039L8.04708 9.87227L6.41271 8.23789Z" fill="#006FB7"/>
</svg>
