<svg id="Capa_1" data-name="Capa 1" fill="currentColor" xmlns="http://www.w3.org/2000/svg" viewBox="0 0 40.92 47.51"><path d="M298.78,448.06c-3.5,0-7,.12-10.5,0-6.52-.28-9.69-3.19-10-9.68-.31-5.6-.13-11.24-.14-16.86,0-.61,0-1.49.34-1.79,3.52-3,2.39-7,2.76-10.77.46-4.73,3.52-7.95,8.28-8.15,6.11-.25,12.24-.24,18.35,0,4.67.18,7.73,3.75,8.05,8.76.22,3.51-.82,7.3,2.64,10,.44.34.41,1.41.41,2.15,0,5.49.16,11-.14,16.48-.37,6.78-3.82,9.84-10.63,9.93-3.13,0-6.25,0-9.37,0Zm-.43-45.51v-.1c-2,0-4,0-6,0-7.16.06-9.42,2.31-9.49,9.36-.06,6.18,3.37,11.86,2.38,18.23-.36,2.32,1.76,1.37,3,1.07a40.69,40.69,0,0,1,20.33,0c3,.82,3.35-.29,3.38-2.81,0-3.08-.86-6.37.82-9.19,2.2-3.68,1.5-7.47.87-11.22-.57-3.35-2.92-5.17-6.31-5.33C304.34,402.44,301.34,402.55,298.35,402.55Zm0,37.92h10.13c1.53,0,3.18,0,3.28-2.11.09-1.85.47-4.14-1.77-4.86a35.65,35.65,0,0,0-22.82-.07c-2.43.82-2.19,3.11-2,5.11.21,2.16,2,1.91,3.44,1.92C291.91,440.5,295.16,440.47,298.4,440.47Zm15.44-10.3h-.1c0,2.12-.11,4.25.05,6.36.08,1.06-.92,2.93,1,3,1.53.05,2.23-1.5,2.25-3,.08-4.87.09-9.74.06-14.61,0-1,0-2.22-1.35-2.31s-1.84,1.22-1.89,2.31C313.76,424.67,313.84,427.42,313.84,430.17Zm-30.59.19c0-2.74,0-5.48,0-8.21,0-1.15-.29-2.43-1.74-2.43s-1.62,1.34-1.62,2.46c0,4.61,0,9.21,0,13.81a6.35,6.35,0,0,0,.76,2.45c.31.68.87,1.38,1.7,1.21s.86-1.1.86-1.83C283.26,435.33,283.24,432.85,283.25,430.36Z" transform="translate(-278.05 -400.6)"/></svg>