<svg  viewBox="0 0 17 17" fill="currentColor" xmlns="http://www.w3.org/2000/svg">
<g clip-path="url(#clip0_560_677)">
<path d="M2.81177 11.978C3.14177 11.3393 3.83844 10.9113 4.68111 11.0173C5.57219 11.1257 6.456 11.2873 7.32777 11.5013C8.66777 11.8359 9.84177 12.4793 10.7098 13.0666L11.0031 13.2706L11.2698 13.4673L11.5084 13.6513L11.7178 13.8206L11.8958 13.9713L12.0424 14.0993C12.6044 14.5999 12.2224 15.418 11.5858 15.478L11.5111 15.4813H5.78177C4.66044 15.4813 3.72844 14.9179 3.04577 14.0639C2.52977 13.4193 2.48577 12.6086 2.81244 11.978H2.81177ZM13.1664 2.14795C13.7618 2.14795 14.0184 2.70795 14.1444 3.22128L14.1844 3.39995L14.2004 3.48528C14.2964 4.01662 14.3478 4.71328 14.3684 5.42928C14.4084 6.84595 14.3271 8.49728 14.1504 9.29262C13.8424 10.6806 13.3904 11.6453 12.8491 12.2266C12.2984 12.8199 11.5544 13.0873 10.8684 12.7439C10.3424 12.4813 10.0284 11.8566 9.85644 11.3239C9.6054 10.5476 9.60937 9.71124 9.86777 8.93728C10.0078 8.51595 10.2598 8.17595 10.5371 7.85262L10.7791 7.57862C11.0738 7.24862 11.3691 6.91862 11.5704 6.51662C11.8638 5.92995 11.9438 5.28795 11.9684 4.64328L11.9778 4.25662L11.9838 3.88328L11.9878 3.79128L12.0011 3.60462C12.0644 2.88595 12.3104 2.14795 13.1664 2.14795Z" />
</g>
<defs>
<clipPath id="clip0_560_677">
<rect width="16" height="16" fill="white" transform="translate(0.5 0.814453)"/>
</clipPath>
</defs>
</svg>
