<svg  viewBox="0 0 16 17" fill="none" xmlns="http://www.w3.org/2000/svg">
<g clip-path="url(#clip0_560_179)">
<path d="M4.66667 12.1478C5.58714 12.1478 6.33333 11.4016 6.33333 10.4811C6.33333 9.56065 5.58714 8.81445 4.66667 8.81445C3.74619 8.81445 3 9.56065 3 10.4811C3 11.4016 3.74619 12.1478 4.66667 12.1478Z" fill="#006FB7" stroke="#006FB7" stroke-width="4" stroke-linecap="round" stroke-linejoin="round"/>
<path d="M11.3327 12.1478C12.2532 12.1478 12.9993 11.4016 12.9993 10.4811C12.9993 9.56065 12.2532 8.81445 11.3327 8.81445C10.4122 8.81445 9.66602 9.56065 9.66602 10.4811C9.66602 11.4016 10.4122 12.1478 11.3327 12.1478Z" fill="#006FB7" stroke="#006FB7" stroke-width="4" stroke-linecap="round" stroke-linejoin="round"/>
<path d="M7.99967 5.48128C8.92015 5.48128 9.66634 4.73509 9.66634 3.81462C9.66634 2.89414 8.92015 2.14795 7.99967 2.14795C7.0792 2.14795 6.33301 2.89414 6.33301 3.81462C6.33301 4.73509 7.0792 5.48128 7.99967 5.48128Z" fill="#006FB7" stroke="#006FB7" stroke-width="4" stroke-linecap="round" stroke-linejoin="round"/>
<path d="M1.33301 15.4814C1.33301 13.6404 2.82534 12.1481 4.66634 12.1481C6.50734 12.1481 7.99967 13.6404 7.99967 15.4814C7.99967 13.6404 9.49201 12.1481 11.333 12.1481C13.174 12.1481 14.6663 13.6404 14.6663 15.4814M11.333 8.81478C11.333 6.97378 9.84067 5.48145 7.99967 5.48145C6.15867 5.48145 4.66634 6.97378 4.66634 8.81478" stroke="#006FB7" stroke-width="4" stroke-linecap="round" stroke-linejoin="round"/>
</g>
<defs>
<clipPath id="clip0_560_179">
<rect width="16" height="16" fill="white" transform="translate(0 0.814453)"/>
</clipPath>
</defs>
</svg>
